<svg width="294" height="218" viewBox="0 0 294 218" fill="none" xmlns="http://www.w3.org/2000/svg">
<path d="M126.428 74.8569L109.086 58.9524L65.02 96.7257L77.586 109.279C74.2313 118.14 76.7331 128.194 83.8974 134.442L134.332 184.826C145.704 194.652 157.076 194.652 165.832 184.826C174.304 185.394 182.037 180.225 184.823 172.216C192.84 171.534 200.004 166.819 203.7 159.662C211.774 157.049 216.153 148.416 213.537 140.35C212.798 138.134 211.604 136.146 210.012 134.442" fill="white"/>
<path d="M165.832 184.769L146.898 165.911M184.823 172.216L165.946 153.301M203.701 159.606L184.823 140.747" stroke="#2B2161" stroke-width="2" stroke-linecap="round"/>
<path d="M83.8981 134.442L76.7906 141.372C72.9242 146.939 73.1516 154.38 77.4161 159.662C85.2627 169.887 94.474 184.031 108.916 191.131C114.204 193.857 123.245 195.448 127.396 191.131L133.65 184.826" fill="url(#paint0_linear_425_1093)"/>
<path d="M203.588 71.5053H191.022C180.56 70.5397 170.268 68.438 160.318 65.2003C156.338 64.1779 116.252 76.9015 113.352 81.7297C110.452 86.5578 122.961 99.5655 134.333 98.1454C145.705 96.7254 155.461 96.0267 160.18 100.969C160.18 100.969 198.869 124.502 209.899 134.442C212.06 133.988 214.107 133.363 216.154 132.511C218.371 131.431 220.532 130.125 222.465 128.591C228.151 123.479 232.529 116.947 235.088 109.733L203.588 71.9029V71.5053Z" fill="url(#paint1_linear_425_1093)"/>
<path d="M21.6933 177.328C14.9838 174.431 10.3214 167.728 4.12367 156.084C20.158 145.973 37.7845 151.994 49.2132 173.522M15.0976 130.125C7.99012 125.013 2.87276 115.414 1.67871 98.373C21.0109 97.0097 35.3964 110.983 36.9316 135.749M19.9306 81.3324C15.2113 73.7209 13.6761 62.6445 18.566 46.3423C36.9885 52.9314 45.4037 71.392 38.2962 95.0216M41.3666 35.0387C40.1157 26.1208 43.1293 15.3285 54.0463 2.3208C68.3749 15.6693 68.8866 36.402 52.9091 55.033M272.102 177.328C278.698 174.431 283.474 167.728 289.672 156.084C273.638 145.973 256.011 151.994 244.582 173.522M278.698 130.125C285.806 124.899 291.037 115.243 292.117 98.1458C272.728 96.7257 258.001 110.699 256.75 135.465M273.979 81.3324C278.698 73.7209 280.29 62.6445 275.343 46.3423C256.864 52.6474 248.278 71.3352 255.386 94.9648M252.315 35.0387C253.623 26.1208 250.61 15.3285 239.579 2.3208C225.25 15.6693 224.739 36.402 240.716 55.033M221.839 205.445C233.211 216.805 250.268 224.928 271.193 201.128C256.978 186.757 237.646 187.495 221.668 205.445H221.839Z" stroke="#5345AC" stroke-width="2" stroke-miterlimit="5" stroke-linecap="round"/>
<path d="M22.5459 201.014C43.8114 224.814 60.5849 216.976 71.9568 205.388C55.9793 187.382 36.5902 186.643 22.5459 201.014Z" stroke="#5345AC" stroke-width="2" stroke-miterlimit="5" stroke-linecap="round"/>
<defs>
<linearGradient id="paint0_linear_425_1093" x1="83.2957" y1="191.928" x2="141.43" y2="156.118" gradientUnits="userSpaceOnUse">
<stop stop-color="#00FFB0"/>
<stop offset="1" stop-color="#2B2161"/>
</linearGradient>
<linearGradient id="paint1_linear_425_1093" x1="131.886" y1="132.25" x2="207.644" y2="50.3238" gradientUnits="userSpaceOnUse">
<stop stop-color="#00FFB0"/>
<stop offset="1" stop-color="#2B2161"/>
</linearGradient>
</defs>
</svg>
