<svg width="159" height="160" viewBox="0 0 159 160" fill="none" xmlns="http://www.w3.org/2000/svg">
<circle cx="79.5" cy="80" r="79.5" fill="#2B2161"/>
<path d="M59.0394 120.5C63.1919 120.492 67.249 119.253 70.6976 116.94C74.1463 114.627 76.8318 111.343 78.4146 107.504C79.9974 103.665 80.4065 99.4432 79.5902 95.3717C78.7739 91.3002 76.7688 87.5621 73.8284 84.6299C70.888 81.6977 67.1442 79.7031 63.0704 78.8983C58.9966 78.0934 54.7756 78.5143 50.941 80.1079C47.1064 81.7015 43.8303 84.3962 41.5269 87.8513C39.2235 91.3065 37.9962 95.3669 38.0001 99.5195C37.9923 102.282 38.5315 105.018 39.5868 107.571C40.6421 110.124 42.1925 112.443 44.1485 114.393C46.1045 116.344 48.4274 117.887 50.9832 118.936C53.539 119.984 56.2771 120.515 59.0394 120.5Z" fill="url(#paint0_linear_53_329)"/>
<path d="M78 91.4201H40M78 107.56H40M59 78.5V120.48M58.9615 78.5196C52.8399 78.5196 47.8541 87.9053 47.8541 99.5098C47.8541 111.114 52.8399 120.5 58.9615 120.5C65.0831 120.5 70.0881 111.095 70.0881 99.5098C70.0881 87.925 65.1023 78.5196 58.9807 78.5196H58.9615Z" stroke="#2B2161" stroke-width="1.5" stroke-linejoin="round"/>
<path d="M81.9858 98.0223H119.989V51.4829H45.8579V77.985" stroke="#5345AC" stroke-width="1.5"/>
<path d="M91.9865 48.4826V42.5H73.8601V48.4826" stroke="#5345AC" stroke-width="1.5"/>
<path d="M120.007 51.465H45.8579V70.5736H120.007V51.465Z" stroke="#5345AC" stroke-width="1.5" stroke-linejoin="round"/>
<path d="M64.3412 65.9482V74.5382" stroke="#5345AC" stroke-width="1.5" stroke-linejoin="round"/>
<path d="M101.505 65.9482V74.5382" stroke="#5345AC" stroke-width="1.5" stroke-linejoin="round"/>
<defs>
<linearGradient id="paint0_linear_53_329" x1="46.8083" y1="83.5498" x2="79.8391" y2="120.985" gradientUnits="userSpaceOnUse">
<stop stop-color="#00FFB0"/>
<stop offset="1" stop-color="#2B2161"/>
</linearGradient>
</defs>
</svg>
