<svg width="159" height="160" viewBox="0 0 159 160" fill="none" xmlns="http://www.w3.org/2000/svg">
<circle cx="79.5" cy="80" r="79.5" fill="#2B2161"/>
<path d="M101 86.5032L82.2204 68.5L77.6293 72.8651C75.9931 74.4224 76.2129 74.9415 77.1165 75.7909C78.02 76.6404 80.8773 76.428 81.6832 79.0235C81.7795 79.9087 81.647 80.8033 81.2975 81.6269C80.948 82.4505 80.3925 83.1774 79.6807 83.7425C79.092 84.4234 78.3376 84.9523 77.4851 85.2817C76.6326 85.6112 75.7087 85.7309 74.7965 85.6301C72.1102 84.8751 72.3544 82.2088 71.4264 81.265C70.4984 80.3212 70.01 80.2032 68.3738 81.7605L62 87.8717L68.0564 93.6761C69.6925 95.2334 69.4483 95.7525 68.5692 96.6019C67.69 97.4514 64.784 97.239 64.0025 99.8345C63.8948 100.721 64.0221 101.619 64.3724 102.444C64.7227 103.27 65.2845 103.996 66.005 104.554C66.5882 105.242 67.3411 105.778 68.1945 106.112C69.0479 106.446 69.9745 106.567 70.8892 106.465C73.5755 105.71 73.3312 103.02 74.2592 102.1C75.1872 101.179 75.6756 101.038 77.3118 102.595L79.7539 104.955" fill="url(#paint0_linear_53_330)"/>
<path d="M64.0551 102.183H45.3036V46.5H96.1826V73.02M45 54.4828H96.5041M49.0539 50.5182H51.7684M54.4829 50.5182H57.1974M73.4666 61.1619H91.0751M73.4666 67.8053H91.0751M50.4111 81.0742H62.6085M50.4111 87.7176H57.1974M67.734 72.7164H52.072V61.2333H67.734V72.6628V72.7164Z" stroke="#5345AC" stroke-width="1.5" stroke-miterlimit="10"/>
<path d="M101.469 123.006L117.452 107.148L113.88 103.576C112.595 102.308 112.184 102.486 111.487 103.183C110.791 103.879 110.952 106.13 108.826 106.755C108.097 106.845 107.355 106.75 106.672 106.479C105.988 106.207 105.384 105.768 104.915 105.201C104.343 104.744 103.898 104.148 103.623 103.469C103.347 102.79 103.251 102.052 103.344 101.326C103.969 99.2005 106.166 99.4327 106.916 98.6826C107.666 97.9325 107.809 97.5754 106.523 96.2896L101.54 91.3606L96.7184 96.0574C95.4325 97.3432 95.0218 97.1468 94.3253 96.4681C93.6288 95.7895 93.7895 93.5036 91.6644 92.8964C90.9344 92.8058 90.1934 92.9006 89.5098 93.1722C88.8262 93.4438 88.2221 93.8833 87.7534 94.4501C87.1836 94.9092 86.7403 95.506 86.4653 96.1841C86.1903 96.8622 86.0927 97.5992 86.1818 98.3254C86.8068 100.451 89.0035 100.218 89.7535 100.969C90.5036 101.719 90.6464 102.076 89.3606 103.344L85.5032 107.183L101.451 123.006H101.469Z" fill="#2B2161" stroke="#5345AC" stroke-width="1.5" stroke-linecap="round" stroke-linejoin="round"/>
<path d="M115.095 64.8049L99.1116 80.6633L102.683 84.235C103.969 85.503 104.469 85.3244 105.094 84.6279C105.719 83.9315 105.63 81.6813 107.755 81.0562C108.487 80.9693 109.228 81.0677 109.911 81.3423C110.595 81.617 111.198 82.059 111.666 82.6278C112.236 83.0869 112.679 83.6836 112.954 84.3617C113.229 85.0398 113.327 85.7768 113.238 86.5031C112.613 88.6104 110.398 88.3782 109.666 89.1462C108.934 89.9141 108.791 90.2534 110.077 91.5213L115.059 96.4682L119.828 91.7178C121.113 90.4498 121.524 90.6284 122.238 91.3249C122.953 92.0214 122.756 94.2716 124.899 94.8966C125.629 94.9913 126.37 94.902 127.057 94.6368C127.743 94.3717 128.352 93.9392 128.828 93.3786C129.398 92.9157 129.841 92.3156 130.116 91.6347C130.391 90.9539 130.489 90.2144 130.4 89.4855C129.775 87.3782 127.56 87.6103 126.828 86.8603C126.096 86.1102 125.953 85.7352 127.239 84.4672L131.078 80.6455L115.095 64.8049Z" stroke="#5345AC" stroke-width="1.5" stroke-linecap="round" stroke-linejoin="round"/>
<defs>
<linearGradient id="paint0_linear_53_330" x1="69.3125" y1="77.0806" x2="95.0313" y2="98.9984" gradientUnits="userSpaceOnUse">
<stop stop-color="#00FFB0"/>
<stop offset="1" stop-color="#2B2161"/>
</linearGradient>
</defs>
</svg>
