<svg width="159" height="159" viewBox="0 0 159 159" fill="none" xmlns="http://www.w3.org/2000/svg">
<circle cx="79.5" cy="79.5" r="79.5" fill="#2B2161"/>
<path d="M59.0394 120C63.1919 119.992 67.249 118.753 70.6976 116.44C74.1463 114.127 76.8318 110.843 78.4146 107.004C79.9974 103.165 80.4065 98.9432 79.5902 94.8717C78.7739 90.8002 76.7688 87.0621 73.8284 84.1299C70.888 81.1977 67.1442 79.2031 63.0704 78.3983C58.9966 77.5934 54.7756 78.0143 50.941 79.6079C47.1064 81.2015 43.8303 83.8962 41.5269 87.3513C39.2235 90.8065 37.9962 94.8669 38.0001 99.0195C37.9923 101.782 38.5315 104.518 39.5868 107.071C40.6421 109.624 42.1925 111.943 44.1485 113.893C46.1045 115.844 48.4274 117.387 50.9832 118.436C53.539 119.484 56.2771 120.015 59.0394 120Z" fill="url(#paint0_linear_53_2153)"/>
<path d="M78 90.9201H40M78 107.06H40M59 78V119.98M58.9615 78.0196C52.8399 78.0196 47.8541 87.4053 47.8541 99.0098C47.8541 110.614 52.8399 120 58.9615 120C65.0831 120 70.0881 110.595 70.0881 99.0098C70.0881 87.425 65.1023 78.0196 58.9807 78.0196H58.9615Z" stroke="#2B2161" stroke-width="1.5" stroke-linejoin="round"/>
<path d="M81.9858 97.5223H119.989V50.9829H45.8579V77.485" stroke="#5345AC" stroke-width="1.5"/>
<path d="M91.9865 47.9826V42H73.8601V47.9826" stroke="#5345AC" stroke-width="1.5"/>
<path d="M120.007 50.965H45.8579V70.0736H120.007V50.965Z" stroke="#5345AC" stroke-width="1.5" stroke-linejoin="round"/>
<path d="M64.3413 65.4482V74.0382" stroke="#5345AC" stroke-width="1.5" stroke-linejoin="round"/>
<path d="M101.505 65.4482V74.0382" stroke="#5345AC" stroke-width="1.5" stroke-linejoin="round"/>
<defs>
<linearGradient id="paint0_linear_53_2153" x1="46.8083" y1="83.0498" x2="79.8391" y2="120.485" gradientUnits="userSpaceOnUse">
<stop stop-color="#00FFB0"/>
<stop offset="1" stop-color="#2B2161"/>
</linearGradient>
</defs>
</svg>
