<svg width="159" height="159" viewBox="0 0 159 159" fill="none" xmlns="http://www.w3.org/2000/svg">
<circle cx="79.5" cy="79.5" r="79.5" fill="#2B2161"/>
<path d="M101 86.0032L82.2204 68L77.6293 72.3651C75.9931 73.9224 76.2129 74.4415 77.1165 75.2909C78.02 76.1404 80.8773 75.928 81.6832 78.5235C81.7795 79.4087 81.647 80.3033 81.2975 81.1269C80.948 81.9505 80.3925 82.6774 79.6807 83.2425C79.092 83.9234 78.3376 84.4523 77.4851 84.7817C76.6326 85.1112 75.7087 85.2309 74.7965 85.1301C72.1102 84.3751 72.3544 81.7088 71.4264 80.765C70.4984 79.8212 70.01 79.7032 68.3738 81.2605L62 87.3717L68.0564 93.1761C69.6925 94.7334 69.4483 95.2525 68.5692 96.1019C67.69 96.9514 64.784 96.739 64.0025 99.3345C63.8948 100.221 64.0221 101.119 64.3724 101.944C64.7227 102.77 65.2845 103.496 66.005 104.054C66.5882 104.742 67.3411 105.278 68.1945 105.612C69.0479 105.946 69.9745 106.067 70.8892 105.965C73.5755 105.21 73.3312 102.52 74.2592 101.6C75.1872 100.679 75.6756 100.538 77.3118 102.095L79.7539 104.455" fill="url(#paint0_linear_53_2165)"/>
<path d="M64.0551 101.683H45.3036V46H96.1826V72.52M45 53.9828H96.5041M49.0539 50.0182H51.7684M54.4829 50.0182H57.1974M73.4666 60.6619H91.0751M73.4666 67.3053H91.0751M50.4111 80.5742H62.6085M50.4111 87.2176H57.1974M67.734 72.2164H52.072V60.7333H67.734V72.1628V72.2164Z" stroke="#5345AC" stroke-width="1.5" stroke-miterlimit="10"/>
<path d="M101.468 122.506L117.452 106.648L113.88 103.076C112.594 101.808 112.184 101.986 111.487 102.683C110.791 103.379 110.951 105.63 108.826 106.255C108.096 106.345 107.355 106.25 106.672 105.979C105.988 105.707 105.384 105.268 104.915 104.701C104.343 104.244 103.898 103.648 103.622 102.969C103.347 102.29 103.251 101.552 103.344 100.826C103.969 98.7005 106.165 98.9327 106.915 98.1826C107.665 97.4325 107.808 97.0754 106.522 95.7896L101.54 90.8606L96.7181 95.5574C95.4323 96.8432 95.0215 96.6468 94.3251 95.9681C93.6286 95.2895 93.7893 93.0036 91.6641 92.3964C90.9342 92.3058 90.1932 92.4006 89.5096 92.6722C88.826 92.9438 88.2219 93.3833 87.7531 93.9501C87.1833 94.4092 86.74 95.006 86.465 95.6841C86.19 96.3622 86.0925 97.0992 86.1816 97.8254C86.8066 99.9506 89.0032 99.7184 89.7533 100.469C90.5033 101.219 90.6462 101.576 89.3604 102.844L85.5029 106.683L101.451 122.506H101.468Z" fill="#2B2161" stroke="#5345AC" stroke-width="1.5" stroke-linecap="round" stroke-linejoin="round"/>
<path d="M115.095 64.3049L99.1113 80.1633L102.683 83.735C103.969 85.003 104.469 84.8244 105.094 84.1279C105.719 83.4315 105.63 81.1813 107.755 80.5562C108.486 80.4693 109.228 80.5677 109.911 80.8423C110.595 81.117 111.198 81.559 111.666 82.1278C112.236 82.5869 112.679 83.1836 112.954 83.8617C113.229 84.5398 113.327 85.2768 113.237 86.0031C112.612 88.1104 110.398 87.8782 109.666 88.6462C108.934 89.4141 108.791 89.7534 110.076 91.0213L115.059 95.9682L119.827 91.2178C121.113 89.9498 121.524 90.1284 122.238 90.8249C122.953 91.5214 122.756 93.7716 124.899 94.3966C125.629 94.4913 126.37 94.402 127.056 94.1368C127.743 93.8717 128.352 93.4392 128.828 92.8786C129.398 92.4157 129.841 91.8156 130.116 91.1347C130.391 90.4539 130.488 89.7144 130.4 88.9855C129.774 86.8782 127.56 87.1103 126.828 86.3603C126.096 85.6102 125.953 85.2352 127.239 83.9672L131.078 80.1455L115.095 64.3049Z" stroke="#5345AC" stroke-width="1.5" stroke-linecap="round" stroke-linejoin="round"/>
<defs>
<linearGradient id="paint0_linear_53_2165" x1="69.3125" y1="76.5806" x2="95.0313" y2="98.4984" gradientUnits="userSpaceOnUse">
<stop stop-color="#00FFB0"/>
<stop offset="1" stop-color="#2B2161"/>
</linearGradient>
</defs>
</svg>
