<svg width="33" height="34" viewBox="0 0 33 34" fill="none" xmlns="http://www.w3.org/2000/svg">
<path d="M15.6279 14.8281V21.8434" stroke="white" stroke-linecap="round" stroke-linejoin="round"/>
<path d="M12.1377 14.8281V21.8434" stroke="white" stroke-linecap="round" stroke-linejoin="round"/>
<path d="M15.6279 17.8973C15.6279 17.0833 15.9497 16.3027 16.5225 15.7271C17.0952 15.1515 17.872 14.8281 18.682 14.8281C19.492 14.8281 20.2688 15.1515 20.8416 15.7271C21.4143 16.3027 21.7361 17.0833 21.7361 17.8973V21.8434" stroke="white" stroke-linecap="round" stroke-linejoin="round"/>
<path d="M32.5 16.5816C32.5 25.4656 25.3342 32.6633 16.5 32.6633C7.66577 32.6633 0.5 25.4656 0.5 16.5816C0.5 7.69766 7.66577 0.5 16.5 0.5C25.3342 0.5 32.5 7.69766 32.5 16.5816Z" stroke="white"/>
<path d="M12.0584 12.905C12.4925 12.905 12.8431 12.5516 12.8431 12.1172C12.8431 11.6829 12.4925 11.3295 12.0584 11.3295C11.6244 11.3295 11.2738 11.6829 11.2738 12.1172C11.2738 12.5516 11.6244 12.905 12.0584 12.905Z" fill="white" stroke="white" stroke-width="0.3"/>
</svg>
