<svg width="238" height="177" viewBox="0 0 238 177" fill="none" xmlns="http://www.w3.org/2000/svg">
<path d="M102.267 60.6285L88.2406 47.7651L52.6006 78.3156L62.7637 88.4685C60.0505 95.6353 62.0739 103.767 67.8683 108.82L108.659 149.57C117.856 157.517 127.054 157.517 134.136 149.57C140.988 150.029 147.242 145.848 149.495 139.371C155.98 138.819 161.774 135.006 164.763 129.218C171.293 127.105 174.834 120.122 172.719 113.598C172.121 111.806 171.155 110.198 169.868 108.82" fill="white"/>
<path d="M134.136 149.524L118.822 134.271M149.495 139.371L134.228 124.073M164.763 129.172L149.495 113.92" stroke="#2B2161" stroke-width="2" stroke-linecap="round"/>
<path d="M67.8682 108.82L62.1198 114.425C58.9927 118.927 59.1766 124.945 62.6257 129.218C68.9719 137.487 76.4218 148.926 88.1025 154.669C92.3794 156.874 99.6913 158.16 103.048 154.669L108.107 149.57" fill="url(#paint0_linear_53_2292)"/>
<path d="M164.672 57.9177H154.508C146.047 57.1367 137.723 55.4369 129.675 52.8183C126.456 51.9913 94.0354 62.282 91.69 66.187C89.3447 70.0919 99.4619 80.6123 108.659 79.4638C117.857 78.3153 125.747 77.7502 129.564 81.7471C129.564 81.7471 160.855 100.78 169.776 108.82C171.524 108.452 173.179 107.947 174.835 107.258C176.628 106.385 178.376 105.328 179.939 104.088C184.538 99.9534 188.079 94.6702 190.148 88.8357L164.672 58.2393V57.9177Z" fill="url(#paint1_linear_53_2292)"/>
<path d="M17.5586 143.505C12.1321 141.162 8.36114 135.741 3.34854 126.324C16.3169 118.146 30.5729 123.016 39.8163 140.427M12.2241 105.329C6.47567 101.194 2.33682 93.4301 1.37109 79.6479C17.0067 78.5453 28.6415 89.8467 29.8831 109.877M16.133 65.8657C12.316 59.7096 11.0744 50.7512 15.0293 37.5663C29.9291 42.8954 36.7352 57.8261 30.9868 76.9374M33.4701 28.4241C32.4584 21.2114 34.8957 12.4827 43.7253 1.96227C55.314 12.7583 55.7279 29.5266 42.8055 44.5952M220.086 143.505C225.42 141.162 229.283 135.741 234.296 126.324C221.328 118.146 207.072 123.016 197.828 140.427M225.42 105.329C231.169 101.102 235.4 93.2922 236.273 79.4641C220.592 78.3156 208.681 89.617 207.669 109.647M221.604 65.8657C225.42 59.7096 226.708 50.7512 222.707 37.5663C207.761 42.6657 200.817 57.7801 206.566 76.8914M204.082 28.4241C205.14 21.2114 202.703 12.4827 193.781 1.96227C182.193 12.7583 181.779 29.5266 194.701 44.5952M179.433 166.246C188.631 175.434 202.427 182.004 219.35 162.754C207.853 151.131 192.218 151.729 179.295 166.246H179.433Z" stroke="#5345AC" stroke-width="2" stroke-miterlimit="5" stroke-linecap="round"/>
<path d="M18.248 162.663C35.4472 181.912 49.0134 175.572 58.2109 166.2C45.2885 151.637 29.6069 151.04 18.248 162.663Z" stroke="#5345AC" stroke-width="2" stroke-miterlimit="5" stroke-linecap="round"/>
<defs>
<linearGradient id="paint0_linear_53_2292" x1="67.381" y1="155.313" x2="114.399" y2="126.351" gradientUnits="userSpaceOnUse">
<stop stop-color="#00FFB0"/>
<stop offset="1" stop-color="#2B2161"/>
</linearGradient>
<linearGradient id="paint1_linear_53_2292" x1="106.68" y1="107.047" x2="167.952" y2="40.7864" gradientUnits="userSpaceOnUse">
<stop stop-color="#00FFB0"/>
<stop offset="1" stop-color="#2B2161"/>
</linearGradient>
</defs>
</svg>
