<svg width="159" height="163" viewBox="0 0 159 163" fill="none" xmlns="http://www.w3.org/2000/svg">
<circle cx="79.5001" cy="79.5" r="79.5" fill="#2B2161"/>
<g clip-path="url(#clip0_33_3156)">
<path d="M49.5001 153L56.9694 102.31L75.8236 96.5049L101.929 113.92L100.479 124.078L102 156C102 156 74.0001 164.5 49.5001 153Z" fill="white"/>
<path d="M42.4663 86.3462C42.4663 86.3462 27.9631 97.956 22.1618 102.31C16.3605 106.663 19.2612 113.92 25.0624 115.371C30.8637 116.822 33.1117 119.797 33.7644 122.627C35.9398 132.06 50.6315 128.098 53.3436 126.255C56.0557 124.412 57.6946 103.035 57.6946 103.035L56.9694 102.31L42.4663 86.3462Z" fill="black"/>
<path d="M118.608 74.7365C118.608 74.7365 136.012 112.468 102.654 124.078C82.35 131.334 62.0456 100.859 62.0456 100.859C62.0456 100.859 40.2908 105.822 40.2908 86.3463C40.2908 66.8708 59.1449 83.4438 59.1449 83.4438L66.3965 58.7729H95.4029L115.707 64.5779L118.608 74.7365Z" fill="white" stroke="#2B2161" stroke-width="2" stroke-miterlimit="10"/>
<path d="M100.755 64.6648C100.755 64.6648 103.655 74.8234 118.158 74.8234C132.662 74.8234 126.86 60.3111 119.609 58.8599C112.357 57.4086 100.755 64.6648 100.755 64.6648Z" fill="black"/>
<path d="M56.2443 82.7183L138.912 55.145C138.912 55.145 143.263 47.8888 134.561 50.7913C125.86 53.6937 114.257 58.0474 114.257 58.0474C114.257 58.0474 107.963 13.9881 69.2971 24.6692C27.2379 36.279 48.9927 79.8158 48.9927 79.8158L56.2443 82.7183Z" fill="url(#paint0_linear_33_3156)"/>
<path d="M65.6713 31.1992C65.6713 31.1992 56.9694 42.809 62.7707 55.8701L68.572 68.9312" stroke="#2B2161" stroke-width="2" stroke-miterlimit="10"/>
<path d="M102.654 124.078C82.35 131.334 62.0456 100.859 62.0456 100.859C62.0456 100.859 40.2908 105.822 40.2908 86.3463C40.2908 66.8708 59.1449 83.4438 59.1449 83.4438" fill="white"/>
<path d="M102.654 124.078C82.35 131.334 62.0456 100.859 62.0456 100.859C62.0456 100.859 40.2908 105.822 40.2908 86.3463C40.2908 66.8708 59.1449 83.4438 59.1449 83.4438" stroke="#2B2161" stroke-width="2" stroke-miterlimit="10"/>
<path d="M48.9927 89.9742C48.9927 89.9742 59.8701 89.2486 60.5952 97.2303" stroke="#2B2161" stroke-width="2" stroke-miterlimit="10"/>
</g>
<defs>
<linearGradient id="paint0_linear_33_3156" x1="91.6841" y1="22.9995" x2="91.6841" y2="82.7183" gradientUnits="userSpaceOnUse">
<stop stop-color="#00FFB0"/>
<stop offset="1" stop-color="#2B2161"/>
</linearGradient>
<clipPath id="clip0_33_3156">
<rect width="121" height="140" fill="white" transform="translate(19.0001 23)"/>
</clipPath>
</defs>
</svg>
