<svg width="189" height="181" viewBox="0 0 189 181" fill="none" xmlns="http://www.w3.org/2000/svg">
<circle cx="109.5" cy="79.5" r="79.5" fill="#2B2161"/>
<path d="M147.918 112.039C147.918 112.039 150.084 146.505 145.422 156.558C140.746 166.61 117.91 152.307 117.91 152.307L122.098 122.091L147.918 112.039Z" fill="black"/>
<path d="M106 72L104.853 75.4334C104.853 75.4334 88.495 121.244 79.0001 151C69.5052 180.756 26.8303 156.085 26.8303 156.085C26.8303 156.085 17.7023 149.824 22.2892 137.235C26.8761 124.646 33.7565 122.357 39.4901 121.212C45.2237 120.068 50.9574 117.779 49.8106 108.623C48.6639 99.4674 47.5172 90.3116 55.5442 88.0227C63.5713 85.7337 81.724 85.3446 83.5473 80.389L106 72Z" fill="black"/>
<path d="M120.5 158.5C107.5 160 92.5001 158.5 78.5001 153L93.41 107.73H104.971L127.836 122.091L122.098 149.377" fill="white"/>
<path d="M147.918 68.9551C147.918 68.9551 163.697 97.6771 149.353 114.91C135.008 132.144 122.098 126.399 102.017 112.038C102.017 112.038 91.9755 113.474 87.6722 109.166C83.369 104.858 77.6313 83.3161 99.1477 94.8049C99.1477 94.8049 102.017 77.5717 104.885 76.1356C107.754 74.6995 147.918 68.9551 147.918 68.9551Z" fill="white" stroke="#2B2161" stroke-width="2" stroke-miterlimit="10"/>
<path d="M90.5411 99.1133C90.5411 99.1133 96.2788 97.6772 99.1477 104.858" stroke="#2B2161" stroke-width="2" stroke-miterlimit="10"/>
<path d="M153.656 61.7748L168 67.2032L104.885 76.1358C104.885 76.1358 99.1477 80.4441 96.2788 80.4441C93.41 80.4441 78.2337 82.3541 78.2337 82.3541C78.2337 82.3541 80.5001 79.008 79.0657 74.6997C77.6313 70.3914 71.8936 47.4137 81.9346 41.6693C81.9346 41.6693 86.2378 23 110.623 23C135.008 23 149.353 37.361 153.656 61.7748Z" fill="url(#paint0_linear_33_3185)"/>
<path d="M106.32 27.3081C106.32 27.3081 120.664 34.4886 127.836 54.5941" stroke="#2B2161" stroke-width="2" stroke-miterlimit="10"/>
<path d="M126.402 28.7446C126.402 28.7446 143.615 37.3612 149.353 60.3389" stroke="#2B2161" stroke-width="2" stroke-miterlimit="10"/>
<defs>
<linearGradient id="paint0_linear_33_3185" x1="122.067" y1="23" x2="122.067" y2="82.3541" gradientUnits="userSpaceOnUse">
<stop stop-color="#00FFB0"/>
<stop offset="1" stop-color="#2B2161"/>
</linearGradient>
</defs>
</svg>
