<svg width="216" height="40" viewBox="0 0 216 40" fill="none" xmlns="http://www.w3.org/2000/svg">
<g clip-path="url(#clip0_425_1740)">
<path d="M6.29274 3.71846C5.92498 4.12708 5.64638 4.64342 5.45693 5.24892C5.26748 5.85813 5.1709 6.51935 5.1709 7.22143V29.5097H7.79348V2.70435C7.20284 2.92723 6.69764 3.26898 6.29274 3.71846Z" fill="white"/>
<path d="M1.12184 7.20277C0.754086 7.6151 0.475483 8.12773 0.286033 8.73323C0.0965825 9.34244 0 10.0037 0 10.7057V25.2191H2.62259V6.18494C2.03195 6.40782 1.52675 6.74957 1.12184 7.20277Z" fill="white"/>
<path d="M43.5328 5.24892C43.3434 4.63971 43.0611 4.12708 42.697 3.71846C42.2921 3.26898 41.7869 2.92723 41.1963 2.70435V29.5097H43.8189V7.22143C43.8189 6.51935 43.7223 5.85813 43.5328 5.25264V5.24892Z" fill="white"/>
<path d="M48.9898 10.9844C48.9898 10.286 48.8932 9.62107 48.7037 9.01558C48.5143 8.40636 48.232 7.89373 47.8679 7.48512C47.463 7.03192 46.9578 6.69017 46.3672 6.46729V25.2117H48.9898V10.9844Z" fill="white"/>
<path d="M38.6331 31.7905V4.58767C38.6331 4.27935 38.6145 3.97102 38.5774 3.6627C38.3545 1.78306 37.3924 0.520059 35.7988 0L24.4912 11.3076L24.2052 11.0178L13.1874 0C11.5937 0.520059 10.6353 1.78306 10.4087 3.6627C10.3716 3.96731 10.353 4.27935 10.353 4.58767V31.7905H12.9793V10.6984L18.3508 15.9584C19.5506 17.1582 20.4347 17.0468 21.2111 16.9465C21.3931 16.9242 21.5937 16.8834 21.8241 16.8165C22.2215 16.7013 22.6079 16.5342 22.9645 16.3113C23.0871 16.237 23.2134 16.1441 23.3322 16.055L23.3657 16.0215L36.0105 3.38039V6.85735L35.9437 6.92793L23.5811 19.2942C24.2312 19.5877 24.911 19.6954 25.5982 19.6062C26.1963 19.5319 26.7869 19.3202 27.3515 18.971C27.7936 18.6961 28.2245 18.3544 28.6257 17.9532L36.0105 10.5684V31.7868H38.6331V31.7905ZM20.8991 14.9034L20.6688 14.6657L12.9793 6.97994V3.49554L13.5365 4.06018L22.6376 13.1612L20.8954 14.9034H20.8991Z" fill="white"/>
<path d="M68.8338 32.3848C69.3799 32.786 69.7216 33.3246 69.8628 34.0081L68.6035 34.2682C68.5329 33.8521 68.3323 33.5178 68.0054 33.2615C67.6748 33.0052 67.2774 32.8789 66.8056 32.8789C66.3338 32.8789 65.9698 32.9903 65.6875 33.2132C65.4051 33.4361 65.264 33.7258 65.264 34.0787C65.264 34.3536 65.3457 34.5691 65.5054 34.7251C65.6652 34.8811 65.9178 34.9963 66.2632 35.0668L67.9683 35.4309C69.3204 35.728 69.9928 36.445 69.9928 37.5854C69.9928 38.3246 69.7179 38.9078 69.1644 39.3462C68.6109 39.7808 67.8791 40 66.969 40C66.0589 40 65.3606 39.7957 64.7551 39.3833C64.1496 38.971 63.8004 38.3952 63.7075 37.6597L65.0485 37.3774C65.1414 37.8714 65.3717 38.2466 65.732 38.5029C66.0924 38.7593 66.5418 38.8856 67.0842 38.8856C67.6265 38.8856 68.0092 38.7741 68.3026 38.5475C68.5961 38.3246 68.7447 38.0275 68.7447 37.6597C68.7447 37.3625 68.6592 37.1359 68.4921 36.9762C68.3212 36.8202 68.0389 36.6976 67.6377 36.6122L65.9178 36.2593C64.5916 35.9546 63.9304 35.2414 63.9304 34.1159C63.9304 33.4175 64.1941 32.8529 64.7254 32.4257C65.2566 31.9985 65.9549 31.7867 66.8279 31.7867C67.6191 31.7867 68.2878 31.9873 68.8338 32.3848Z" fill="white"/>
<path d="M77.337 38.306C77.7382 38.0163 78.0242 37.6076 78.2099 37.0839H79.5175C79.3058 37.994 78.8489 38.7072 78.1542 39.2273C77.4559 39.7436 76.6349 40.0036 75.6951 40.0036C74.5472 40.0036 73.5777 39.6062 72.7828 38.8149C71.9878 38.0237 71.5903 37.0504 71.5903 35.8952C71.5903 34.7399 71.9878 33.7778 72.7828 32.9828C73.5814 32.1879 74.551 31.7904 75.6951 31.7904C76.6275 31.7904 77.4447 32.043 78.1431 32.5556C78.8414 33.0645 79.2984 33.7518 79.5212 34.6173H78.1839C77.9982 34.1381 77.7196 33.7592 77.3444 33.488C76.8838 33.15 76.334 32.9828 75.6988 32.9828C74.8964 32.9828 74.2241 33.2651 73.6817 33.8224C73.1357 34.3833 72.8645 35.0742 72.8645 35.9026C72.8645 36.731 73.1357 37.4182 73.6817 37.9791C74.2278 38.54 74.9001 38.8224 75.6988 38.8224C76.334 38.8224 76.8838 38.6515 77.3444 38.3172L77.337 38.306Z" fill="white"/>
<path d="M87.1472 39.8365L86.3708 38.0015H82.5335L81.7571 39.8365H80.3901L83.8634 31.9502H85.0409L88.5142 39.8365H87.1509H87.1472ZM84.4503 33.4918L83.0276 36.8462H85.8768L84.454 33.4918H84.4503Z" fill="white"/>
<path d="M97.0692 39.8365H95.9994L91.2334 34.1753V39.8365H89.9741V31.9502H91.044L95.7988 37.708V31.9502H97.0692V39.8365Z" fill="white"/>
<path d="M106.159 33.0907V39.8329H104.889V33.0907H102.122V31.9465H108.938V33.0907H106.159Z" fill="white"/>
<path d="M116.913 32.9866C117.712 33.7853 118.106 34.7585 118.106 35.9064C118.106 37.0542 117.708 38.02 116.913 38.815C116.115 39.6062 115.141 40.0037 113.99 40.0037C112.838 40.0037 111.861 39.6062 111.07 38.815C110.279 38.0237 109.881 37.0542 109.881 35.9064C109.881 34.7585 110.279 33.7778 111.07 32.9792C111.861 32.1842 112.835 31.7867 113.99 31.7867C115.145 31.7867 116.118 32.1879 116.913 32.9866ZM116.014 37.9755C116.564 37.4182 116.839 36.7273 116.839 35.9064C116.839 35.0854 116.564 34.3759 116.014 33.815C115.465 33.2541 114.788 32.9754 113.99 32.9754C113.191 32.9754 112.515 33.2578 111.973 33.815C111.427 34.3759 111.156 35.0743 111.156 35.9064C111.156 36.7385 111.427 37.4182 111.973 37.9755C112.519 38.5327 113.191 38.8113 113.99 38.8113C114.788 38.8113 115.465 38.5327 116.014 37.9755Z" fill="white"/>
<path d="M129.332 39.8365L128.555 38.0015H124.718L123.942 39.8365H122.575L126.048 31.9502H127.226L130.699 39.8365H129.335H129.332ZM126.635 33.4918L125.212 36.8462H128.061L126.639 33.4918H126.635Z" fill="white"/>
<path d="M137.006 35.821C137.415 35.8693 137.764 36.055 138.054 36.3856C138.343 36.7162 138.488 37.1434 138.488 37.6672C138.488 38.3247 138.273 38.8522 137.846 39.2422C137.419 39.636 136.798 39.8329 135.992 39.8329H132.155V31.9465H135.91C136.624 31.9465 137.196 32.1397 137.619 32.5297C138.043 32.9198 138.254 33.4324 138.254 34.0788C138.254 34.5431 138.124 34.9257 137.872 35.2341C137.615 35.5387 137.329 35.7207 137.006 35.7764V35.821ZM133.418 35.3641H135.773C136.148 35.3641 136.453 35.2526 136.687 35.026C136.921 34.7994 137.032 34.5097 137.032 34.1494C137.032 33.8187 136.917 33.5513 136.687 33.3433C136.456 33.1352 136.156 33.0312 135.788 33.0312H133.422V35.3641H133.418ZM135.866 38.7519C136.282 38.7519 136.609 38.6404 136.843 38.4213C137.077 38.2021 137.196 37.9124 137.196 37.552C137.196 37.1917 137.077 36.9168 136.835 36.6976C136.598 36.4822 136.286 36.3745 135.899 36.3745H133.414V38.7519H135.862H135.866Z" fill="white"/>
<path d="M146.33 39.8365L145.554 38.0015H141.717L140.94 39.8365H139.573L143.046 31.9502H144.224L147.697 39.8365H146.334H146.33ZM143.633 33.4918L142.211 36.8462H145.06L143.637 33.4918H143.633Z" fill="white"/>
<path d="M165.123 36.3521C165.123 37.4443 164.814 38.3246 164.205 38.9933C163.592 39.6656 162.79 40 161.794 40C160.799 40 159.952 39.6656 159.328 38.9933C158.704 38.3246 158.392 37.4405 158.392 36.3521V31.9502H159.651V36.3521C159.651 37.0914 159.848 37.682 160.242 38.124C160.632 38.5661 161.152 38.789 161.794 38.789C162.437 38.789 162.912 38.5661 163.295 38.1166C163.678 37.6708 163.867 37.0802 163.867 36.3521V31.9502H165.126V36.3521H165.123Z" fill="white"/>
<path d="M172.133 32.3848C172.679 32.786 173.02 33.3246 173.162 34.0081L171.902 34.2682C171.832 33.8521 171.631 33.5178 171.304 33.2615C170.974 33.0052 170.576 32.8789 170.104 32.8789C169.633 32.8789 169.269 32.9903 168.986 33.2132C168.704 33.4361 168.563 33.7258 168.563 34.0787C168.563 34.3536 168.645 34.5691 168.804 34.7251C168.964 34.8811 169.217 34.9963 169.562 35.0668L171.267 35.4309C172.619 35.728 173.292 36.445 173.292 37.5854C173.292 38.3246 173.017 38.9078 172.463 39.3462C171.91 39.7808 171.178 40 170.268 40C169.358 40 168.659 39.7957 168.054 39.3833C167.448 38.971 167.099 38.3952 167.006 37.6597L168.347 37.3774C168.44 37.8714 168.671 38.2466 169.031 38.5029C169.391 38.7593 169.841 38.8856 170.383 38.8856C170.925 38.8856 171.308 38.7741 171.601 38.5475C171.895 38.3246 172.044 38.0275 172.044 37.6597C172.044 37.3625 171.958 37.1359 171.791 36.9762C171.62 36.8202 171.338 36.6976 170.937 36.6122L169.217 36.2593C167.89 35.9546 167.229 35.2414 167.229 34.1159C167.229 33.4175 167.493 32.8529 168.024 32.4257C168.555 31.9985 169.254 31.7867 170.127 31.7867C170.918 31.7867 171.587 31.9873 172.133 32.3848Z" fill="white"/>
<path d="M154.38 38.306C154.781 38.0163 155.067 37.6076 155.253 37.0839H156.56C156.349 37.994 155.892 38.7072 155.197 39.2273C154.499 39.7436 153.678 40.0036 152.738 40.0036C151.59 40.0036 150.621 39.6062 149.826 38.8149C149.031 38.0237 148.633 37.0504 148.633 35.8952C148.633 34.7399 149.031 33.7778 149.826 32.9828C150.624 32.1879 151.594 31.7904 152.738 31.7904C153.67 31.7904 154.488 32.043 155.186 32.5556C155.884 33.0645 156.341 33.7518 156.564 34.6173H155.227C155.041 34.1381 154.763 33.7592 154.387 33.488C153.927 33.15 153.377 32.9828 152.742 32.9828C151.939 32.9828 151.267 33.2651 150.725 33.8224C150.179 34.3833 149.907 35.0742 149.907 35.9026C149.907 36.731 150.179 37.4182 150.725 37.9791C151.271 38.54 151.943 38.8224 152.742 38.8224C153.377 38.8224 153.927 38.6515 154.387 38.3172L154.38 38.306Z" fill="white"/>
<path d="M84.4871 25.141V6.34082H81.8274L74.1899 20.4716L66.5822 6.34082H63.8965V25.141H66.8757V13.2873L73.2464 25.141H75.1372L81.5079 13.2873V25.141H84.4871Z" fill="white"/>
<path d="M98.1313 5.94727C95.3936 5.94727 93.0533 6.90566 91.1737 8.79645C89.294 10.6872 88.3394 13.0312 88.3394 15.769C88.3394 18.5067 89.294 20.8173 91.1737 22.7006C93.0533 24.5803 95.3936 25.5349 98.1313 25.5349C100.869 25.5349 103.213 24.5803 105.104 22.7006C106.995 20.821 107.953 18.4881 107.953 15.769C107.953 13.0498 106.995 10.7095 105.104 8.81131C103.217 6.91309 100.869 5.95098 98.1313 5.95098V5.94727ZM102.912 20.6612C101.619 21.9725 100.011 22.6337 98.1313 22.6337C96.2517 22.6337 94.6469 21.9688 93.3616 20.6612C92.0801 19.3499 91.43 17.7043 91.43 15.7652C91.43 13.8262 92.0801 12.1471 93.3616 10.8284C94.6432 9.50967 96.248 8.84102 98.1276 8.84102C100.007 8.84102 101.619 9.50967 102.908 10.8284C104.201 12.1471 104.855 13.8076 104.855 15.7652C104.855 17.7229 104.201 19.3499 102.908 20.6612H102.912Z" fill="white"/>
<path d="M125.743 16.8908C125.245 16.3262 124.666 15.9287 124.019 15.7133L123.443 15.5201L123.993 15.2601C124.465 15.0372 124.911 14.6806 125.312 14.2014C125.921 13.4733 126.23 12.5409 126.23 11.4376C126.23 9.90719 125.717 8.65904 124.706 7.73408C123.7 6.80912 122.325 6.34106 120.628 6.34106H111.675V25.1449H120.825C122.745 25.1449 124.235 24.6694 125.253 23.7371C126.27 22.8009 126.79 21.5342 126.79 19.9629C126.79 18.7111 126.438 17.6784 125.747 16.8908H125.743ZM114.74 8.98594H120.323C121.2 8.98594 121.891 9.22368 122.437 9.71774C122.983 10.2081 123.25 10.8247 123.25 11.6048C123.25 12.4592 122.983 13.1316 122.437 13.6628C121.891 14.1902 121.189 14.4503 120.297 14.4503H114.744V8.98965L114.74 8.98594ZM122.812 21.7274C122.262 22.24 121.49 22.5001 120.516 22.5001H114.74V16.928H120.602C121.512 16.928 122.232 17.1769 122.801 17.6858C123.365 18.1947 123.64 18.8485 123.64 19.6843C123.64 20.5201 123.369 21.2073 122.812 21.7274Z" fill="white"/>
<path d="M133.815 6.34106H130.75V25.1449H133.815V6.34106Z" fill="white"/>
<path d="M140.505 24.0601C141.939 25.0371 143.715 25.5349 145.78 25.5349C147.846 25.5349 149.703 25.0111 151.014 23.9747C152.329 22.9383 152.998 21.523 152.998 19.7659C152.998 17.0579 151.371 15.3231 148.161 14.6136L144.109 13.7481C143.302 13.5847 142.701 13.3135 142.325 12.9494C141.947 12.5817 141.765 12.0876 141.765 11.4376C141.765 10.6017 142.088 9.94053 142.756 9.41304C143.418 8.88926 144.305 8.62552 145.39 8.62552C146.475 8.62552 147.448 8.92641 148.217 9.52448C149.001 10.13 149.461 10.9026 149.629 11.8907L149.636 11.9279L152.701 11.2964L152.693 11.263C152.359 9.63964 151.531 8.33206 150.234 7.38481C148.938 6.43384 147.329 5.95093 145.446 5.95093C143.377 5.95093 141.69 6.46727 140.435 7.48139C139.172 8.49922 138.533 9.8588 138.533 11.523C138.533 14.1939 140.134 15.9175 143.291 16.6456L147.366 17.4814C148.31 17.6857 148.986 17.9717 149.38 18.3395C149.777 18.7072 149.967 19.231 149.967 19.9331C149.967 20.8061 149.629 21.4858 148.934 22.0133C148.247 22.5371 147.281 22.8009 146.062 22.8009C144.844 22.8009 143.715 22.4962 142.868 21.8982C142.01 21.2927 141.486 20.4272 141.259 19.2533L141.252 19.2162L137.994 19.9034V19.9368C138.224 21.6902 139.064 23.0757 140.502 24.0564L140.505 24.0601Z" fill="white"/>
<path d="M190.516 20.7801L192.359 25.1411H195.683L187.407 6.33728H184.562L176.285 25.1411H179.606L181.452 20.7801H190.516ZM185.984 10.13L189.313 17.968H182.66L185.988 10.13H185.984Z" fill="white"/>
<path d="M215.62 25.1412V6.34106H212.526V19.9443L201.285 6.34106H198.688V25.1412H201.753V11.7608L213.02 25.1412H215.62Z" fill="white"/>
<path d="M156.664 12.7711C155.839 15.3751 156.144 18.2318 157.5 20.6055C159.279 23.7221 162.117 25.39 165.94 25.5572C167.08 25.6055 168.235 25.4234 169.391 25.0148C172.329 23.9784 174.264 21.8907 175.148 18.8113C175.182 18.6887 175.208 18.5624 175.23 18.4286H171.876C171.411 19.7845 170.683 20.7912 169.647 21.5081C168.302 22.4405 166.746 22.7377 164.881 22.422C162.693 22.0431 161.085 20.7615 160.096 18.6069C159.662 17.656 159.476 16.5861 159.536 15.3306C159.621 13.4918 160.286 11.9725 161.515 10.8135C163.469 8.96356 165.802 8.48436 168.443 9.39075C169.859 9.87738 170.921 10.8878 171.605 12.4034H175.122C174.558 10.4754 173.458 8.90412 171.853 7.73399C170.316 6.61586 168.559 6.03637 166.482 5.95836C166.348 5.95464 166.218 5.95093 166.088 5.95093C164.591 5.95093 163.161 6.26668 161.835 6.88703C159.331 8.0646 157.492 10.156 156.664 12.7748V12.7711Z" fill="white"/>
</g>
<defs>
<clipPath id="clip0_425_1740">
<rect width="215.62" height="40" fill="white"/>
</clipPath>
</defs>
</svg>
