<svg width="214" height="40" viewBox="0 0 214 40" fill="none" xmlns="http://www.w3.org/2000/svg">
<g clip-path="url(#clip0_406_462)">
<path d="M6.21224 3.92227C5.82585 4.3519 5.52862 4.89264 5.33171 5.52227C5.1348 6.14449 5.03821 6.82597 5.03821 7.54079V29.8H8.12189V2.74078C7.35283 2.96671 6.71008 3.35931 6.21224 3.91856V3.92227Z" fill="url(#paint0_linear_406_462)"/>
<path d="M1.08516 7.363C0.698772 7.79263 0.405264 8.33337 0.204639 8.963C0.00772968 9.58522 -0.0888672 10.263 -0.0888672 10.9815V25.5593H2.99481V6.18152C2.22575 6.40744 1.58301 6.80374 1.08516 7.35929V7.363Z" fill="url(#paint1_linear_406_462)"/>
<path d="M43.5285 5.52598C43.3316 4.89264 43.0344 4.35561 42.648 3.92598C42.1464 3.37042 41.5037 2.97413 40.7383 2.7482V29.8075H43.822V7.5482C43.822 6.82968 43.7217 6.1519 43.5285 5.52968V5.52598Z" fill="url(#paint2_linear_406_462)"/>
<path d="M48.9491 11.263C48.9491 10.5482 48.8488 9.86671 48.6556 9.24448C48.455 8.61115 48.1615 8.07411 47.7751 7.64448C47.2772 7.08892 46.6345 6.69263 45.8654 6.46671V25.563H48.9491V11.2667V11.263Z" fill="url(#paint3_linear_406_462)"/>
<path d="M28.6971 18.3223L35.6001 11.4371V32.0593H38.6838V4.94079C38.6838 4.62597 38.6652 4.30746 38.628 4.00005C38.3865 1.98524 37.3277 0.648196 35.5667 0.137085L24.4282 11.2408L24.3168 11.1297L13.2898 0.140792C11.5288 0.651903 10.47 1.98894 10.2285 4.00375C10.1913 4.31116 10.1727 4.62968 10.1727 4.9445V32.063H13.2601V11.5593L13.3976 11.6963L18.1717 16.3556C19.4349 17.6149 20.4195 17.4963 21.2071 17.3963C21.4003 17.3741 21.6121 17.3297 21.8498 17.2593C22.2697 17.1408 22.6709 16.963 23.0424 16.7334C23.1725 16.6556 23.3025 16.5593 23.4251 16.4667L23.4771 16.4186L35.5964 4.33709V7.08894L35.5741 7.11487L27.9912 14.6741L23.1093 19.5408C23.8895 19.9667 24.7069 20.1297 25.5503 20.026C26.1781 19.9482 26.7986 19.726 27.3856 19.3667C27.8426 19.0852 28.281 18.7371 28.6934 18.326L28.6971 18.3223ZM20.869 14.7889L20.8133 14.7297L13.2638 7.20375V4.4519L13.4013 4.58894L22.2511 13.4112L20.869 14.7889Z" fill="url(#paint4_linear_406_462)"/>
<path d="M73.681 20.1259L66.2838 6.43332H63.2373V25.4926H66.6739V14.4963L72.5218 25.3444L72.5998 25.4926H74.7621L80.688 14.4963V25.4926H84.1283V6.43332H81.1078L73.681 20.1259Z" fill="#2B2161"/>
<path d="M97.4067 6.04443C94.6277 6.04443 92.2499 7.0148 90.3366 8.92962C88.4269 10.8444 87.4572 13.2185 87.4572 15.9889C87.4572 18.7592 88.4269 21.1037 90.3366 23.0074C92.2462 24.9111 94.624 25.8778 97.403 25.8778C100.182 25.8778 102.564 24.9111 104.484 23.0074C106.405 21.1037 107.379 18.7407 107.379 15.9889C107.379 13.237 106.405 10.8667 104.484 8.94443C102.564 7.02221 100.182 6.04443 97.403 6.04443H97.4067ZM103.83 15.9889C103.83 17.837 103.206 19.4074 101.973 20.6555C100.739 21.9037 99.2049 22.5333 97.4067 22.5333C95.6085 22.5333 94.0778 21.9 92.8555 20.6555C91.6295 19.4074 91.009 17.837 91.009 15.9889C91.009 14.1407 91.6295 12.537 92.8555 11.2815C94.0778 10.0259 95.6085 9.39258 97.4067 9.39258C99.2049 9.39258 100.739 10.0296 101.973 11.2852C103.206 12.5407 103.834 14.1259 103.834 15.9926L103.83 15.9889Z" fill="#2B2161"/>
<path d="M123.143 15.7036C123.644 15.4703 124.109 15.0962 124.532 14.5925C125.171 13.8259 125.498 12.8555 125.498 11.7073C125.498 10.1222 124.963 8.83327 123.912 7.87031C122.868 6.91475 121.452 6.42957 119.706 6.42957H110.589V25.4888H119.899C121.865 25.4888 123.395 24.9999 124.451 24.037C125.513 23.0666 126.052 21.7518 126.052 20.1333C126.052 18.837 125.684 17.7629 124.956 16.937C124.432 16.3444 123.826 15.9333 123.143 15.7036ZM114.111 17.3703H119.676C120.52 17.3703 121.177 17.5962 121.694 18.0592C122.199 18.5147 122.448 19.1036 122.448 19.8555C122.448 20.6073 122.207 21.2333 121.705 21.6962C121.207 22.1592 120.498 22.3962 119.595 22.3962H114.111V17.374V17.3703ZM121.326 13.7296C120.832 14.2073 120.193 14.437 119.372 14.437H114.111V9.52586H119.402C120.208 9.52586 120.839 9.74068 121.333 10.1851C121.82 10.6222 122.058 11.174 122.058 11.8703C122.058 12.6444 121.82 13.2518 121.326 13.7296Z" fill="#2B2161"/>
<path d="M133.017 6.43335H129.495V25.4926H133.017V6.43335Z" fill="#2B2161"/>
<path d="M147.047 14.6148L143.027 13.7592C142.273 13.6036 141.715 13.3592 141.377 13.0333C141.05 12.7148 140.894 12.2851 140.894 11.7111C140.894 10.9666 141.188 10.374 141.786 9.89995C142.399 9.41846 143.224 9.17402 144.246 9.17402C145.267 9.17402 146.178 9.4555 146.902 10.0148C147.626 10.574 148.054 11.2888 148.21 12.2036L148.258 12.4851L151.78 11.7629L151.724 11.4888C151.379 9.82587 150.528 8.48513 149.191 7.51106C147.864 6.54069 146.218 6.0481 144.301 6.0481C142.195 6.0481 140.475 6.57402 139.182 7.61476C137.87 8.67032 137.209 10.074 137.209 11.7925C137.209 14.5592 138.858 16.3407 142.113 17.0888L146.155 17.9185C147.043 18.1111 147.675 18.374 148.031 18.7074C148.373 19.0222 148.537 19.4814 148.537 20.1074C148.537 20.8888 148.232 21.4962 147.608 21.9703C146.969 22.4555 146.059 22.6999 144.911 22.6999C143.699 22.6999 142.681 22.4148 141.886 21.8518C141.091 21.2925 140.601 20.4851 140.393 19.3888L140.341 19.1111L136.655 19.8851L136.689 20.1407C136.919 21.9444 137.788 23.3703 139.275 24.3814C140.738 25.374 142.544 25.8777 144.639 25.8777C146.735 25.8777 148.633 25.3407 149.978 24.2851C151.345 23.2111 152.037 21.7518 152.037 19.937C152.037 17.1333 150.361 15.3407 147.051 14.6111L147.047 14.6148Z" fill="#2B2161"/>
<path d="M182.91 6.43332L174.491 25.4926H178.318L180.146 21.1852H188.806L190.634 25.4926H194.461L186.042 6.43332H182.906H182.91ZM187.409 17.9222H181.547L184.478 11.0407L187.409 17.9222Z" fill="#2B2161"/>
<path d="M210.537 6.43335V19.4445L199.756 6.43335H196.824V25.4926H200.346V12.6926L211.158 25.4926H214.089V6.43335H210.537Z" fill="#2B2161"/>
<path d="M155.187 12.9518C154.347 15.5888 154.66 18.4814 156.034 20.8851C157.844 24.0407 160.723 25.7296 164.598 25.8999C165.757 25.9481 166.931 25.7666 168.109 25.3518C171.1 24.2999 173.069 22.1851 173.968 19.0629C174.012 18.9037 174.042 18.7407 174.072 18.5666C174.083 18.5074 174.094 18.4481 174.105 18.3851C174.083 18.3814 174.064 18.3777 174.042 18.374L170.316 18.3777V18.3925C170.297 18.437 170.286 18.4814 170.271 18.5222C169.829 19.8185 169.134 20.7814 168.15 21.4629C166.868 22.3481 165.382 22.6296 163.602 22.3259C161.518 21.9666 159.984 20.7444 159.04 18.6925C158.624 17.7888 158.449 16.7666 158.505 15.5666C158.587 13.8148 159.218 12.3703 160.392 11.2666C162.261 9.50735 164.49 9.0518 167.013 9.91476C168.395 10.3851 169.42 11.3925 170.067 12.9036H174.031C173.485 10.8036 172.337 9.10365 170.613 7.8555C169.049 6.72217 167.266 6.13328 165.155 6.0555C165.021 6.0518 164.888 6.0481 164.754 6.0481C163.231 6.0481 161.782 6.36661 160.437 6.99624C157.892 8.18884 156.027 10.3036 155.183 12.9555L155.187 12.9518Z" fill="#2B2161"/>
</g>
<defs>
<linearGradient id="paint0_linear_406_462" x1="-1.08457" y1="16.4112" x2="48.6518" y2="15.6807" gradientUnits="userSpaceOnUse">
<stop stop-color="#00FFB0"/>
<stop offset="0.15" stop-color="#00DEA8"/>
<stop offset="0.39" stop-color="#00B39D"/>
<stop offset="0.51" stop-color="#00A39A"/>
<stop offset="1" stop-color="#2B2161"/>
</linearGradient>
<linearGradient id="paint1_linear_406_462" x1="-1.09199" y1="15.9334" x2="48.6444" y2="15.2066" gradientUnits="userSpaceOnUse">
<stop stop-color="#00FFB0"/>
<stop offset="0.15" stop-color="#00DEA8"/>
<stop offset="0.39" stop-color="#00B39D"/>
<stop offset="0.51" stop-color="#00A39A"/>
<stop offset="1" stop-color="#2B2161"/>
</linearGradient>
<linearGradient id="paint2_linear_406_462" x1="-1.07708" y1="16.9075" x2="48.6592" y2="16.177" gradientUnits="userSpaceOnUse">
<stop stop-color="#00FFB0"/>
<stop offset="0.15" stop-color="#00DEA8"/>
<stop offset="0.39" stop-color="#00B39D"/>
<stop offset="0.51" stop-color="#00A39A"/>
<stop offset="1" stop-color="#2B2161"/>
</linearGradient>
<linearGradient id="paint3_linear_406_462" x1="-1.07714" y1="16.7186" x2="48.6555" y2="15.9918" gradientUnits="userSpaceOnUse">
<stop stop-color="#00FFB0"/>
<stop offset="0.15" stop-color="#00DEA8"/>
<stop offset="0.39" stop-color="#00B39D"/>
<stop offset="0.51" stop-color="#00A39A"/>
<stop offset="1" stop-color="#2B2161"/>
</linearGradient>
<linearGradient id="paint4_linear_406_462" x1="-1.08085" y1="16.4926" x2="48.6518" y2="15.7622" gradientUnits="userSpaceOnUse">
<stop stop-color="#00FFB0"/>
<stop offset="0.15" stop-color="#00DEA8"/>
<stop offset="0.39" stop-color="#00B39D"/>
<stop offset="0.51" stop-color="#00A39A"/>
<stop offset="1" stop-color="#2B2161"/>
</linearGradient>
<clipPath id="clip0_406_462">
<rect width="214" height="40" fill="white"/>
</clipPath>
</defs>
</svg>
